<svg width="12" height="12" viewBox="0 0 12 12" fill="none" xmlns="http://www.w3.org/2000/svg">
<path d="M1.369 0.234884C1.05582 -0.0782947 0.548061 -0.0782947 0.234883 0.234884C-0.0782944 0.548063 -0.0782944 1.05583 0.234883 1.36901L4.86588 6.00002L0.234931 10.631C-0.0782463 10.9442 -0.0782466 11.4519 0.234931 11.7651C0.548109 12.0783 1.05587 12.0783 1.36905 11.7651L6 7.13415L10.631 11.7651C10.9441 12.0783 11.4519 12.0783 11.7651 11.7651C12.0782 11.4519 12.0782 10.9442 11.7651 10.631L7.13412 6.00002L11.7651 1.36901C12.0783 1.05583 12.0783 0.548063 11.7651 0.234884C11.4519 -0.0782947 10.9442 -0.0782947 10.631 0.234884L6 4.8659L1.369 0.234884Z" fill="#5D5FEF"/>
</svg>
