<svg width="20" height="20" viewBox="0 0 20 20" fill="none" xmlns="http://www.w3.org/2000/svg">
<g clip-path="url(#clip0_109_7647)">
<path d="M13.3327 13.3333L9.99935 10L6.66602 13.3333" stroke="#5570F1" stroke-width="2" stroke-linecap="round" stroke-linejoin="round"/>
<path d="M10 10V17.5" stroke="#5570F1" stroke-width="2" stroke-linecap="round" stroke-linejoin="round"/>
<path d="M16.9909 15.325C17.8037 14.8819 18.4458 14.1807 18.8158 13.3322C19.1858 12.4836 19.2627 11.536 19.0344 10.6389C18.8061 9.74179 18.2855 8.94626 17.5548 8.37787C16.8241 7.80948 15.925 7.50061 14.9992 7.5H13.9492C13.697 6.52436 13.2269 5.61861 12.5742 4.85082C11.9215 4.08304 11.1033 3.47321 10.181 3.06717C9.2587 2.66113 8.25636 2.46946 7.24933 2.50657C6.2423 2.54367 5.25679 2.80858 4.36688 3.28138C3.47697 3.75419 2.70583 4.42258 2.11142 5.23631C1.51701 6.05005 1.11481 6.98794 0.935051 7.97949C0.755293 8.97104 0.802655 9.99044 1.07358 10.961C1.3445 11.9317 1.83194 12.8282 2.49923 13.5833" stroke="#5570F1" stroke-width="2" stroke-linecap="round" stroke-linejoin="round"/>
<path d="M13.3327 13.3333L9.99935 10L6.66602 13.3333" stroke="#5570F1" stroke-width="2" stroke-linecap="round" stroke-linejoin="round"/>
</g>
<defs>
<clipPath id="clip0_109_7647">
<rect width="20" height="20" fill="white"/>
</clipPath>
</defs>
</svg>
