<svg width="30" height="30" viewBox="0 0 30 30" fill="none" xmlns="http://www.w3.org/2000/svg">
<circle cx="15" cy="15" r="15" fill="#FFB8B8"/>
<path d="M10.369 9.23488C10.0558 8.92171 9.54806 8.92171 9.23488 9.23488C8.92171 9.54806 8.92171 10.0558 9.23488 10.369L13.8659 15L9.23493 19.631C8.92175 19.9442 8.92175 20.4519 9.23493 20.7651C9.54811 21.0783 10.0559 21.0783 10.369 20.7651L15 16.1341L19.631 20.7651C19.9441 21.0783 20.4519 21.0783 20.7651 20.7651C21.0782 20.4519 21.0782 19.9442 20.7651 19.631L16.1341 15L20.7651 10.369C21.0783 10.0558 21.0783 9.54806 20.7651 9.23488C20.4519 8.92171 19.9442 8.92171 19.631 9.23488L15 13.8659L10.369 9.23488Z" fill="black"/>
</svg>
