<?xml version="1.0" encoding="UTF-8"?>
<svg id="Layer_1" xmlns="http://www.w3.org/2000/svg" version="1.1" viewBox="0 0 699.1 225">
  <!-- Generator: Adobe Illustrator 29.1.0, SVG Export Plug-In . SVG Version: 2.1.0 Build 142)  -->
  <defs>
    <style>
      .st0 {
        fill: #010101;
      }

      .st1 {
        fill: #fdc689;
      }

      .st2 {
        fill: #231f20;
      }

      .st3 {
        fill: #f8991d;
      }

      .st4 {
        fill: none;
        stroke: #fff;
        stroke-width: 1px;
      }
    </style>
  </defs>
  <path class="st0" d="M152.1,110.4c-1.5-8.5-8.5-12.7-16.9-12.7-15.2,0-18.4,11.9-18.4,19.9s3.2,19.9,18.4,19.9,15.3-3.7,16.9-13.1h17.4c-2,17.2-16.1,24.3-34.9,24.3s-34.9-9.3-34.9-31.2,13.4-31.2,34.9-31.2,32.3,3.6,34.7,24h-17.3Z"/>
  <path class="st0" d="M176.6,102.8h14.1v8.7h.2c5.3-6.8,9.4-9.8,17.7-9.8s3.6,0,5.3.4v13.6c-2.6-.7-5.3-1.3-8-1.3-9.9,0-14.6,5-14.6,13.6v19.1h-14.5v-44.3Z"/>
  <path class="st0" d="M273.9,133.9c-4.2,10.5-14.3,14.9-27.6,14.9s-29.3-7.1-29.3-23.8,11.7-23.8,29.3-23.8,28.4,9.7,28.4,26.4v1.3h-42.7v.2c0,4.2,4.3,10.7,14.2,10.7s10-2,12.1-5.8h15.5ZM259.7,120.3v-.2c0-2.4-3.1-9.8-13.7-9.8s-13.9,8.8-13.9,9.8v.2h27.6Z"/>
  <path class="st0" d="M277.2,102.8h16l10.2,30.3h.2l10.3-30.3h14.1l10.3,30.3h.2l10.2-30.3h16l-16.5,44.3h-17.4l-9.6-28.6h-.2l-9.6,28.6h-17.4l-16.5-44.3Z"/>
  <path class="st0" d="M430.2,88.1h12.2v59h-8.8v-48.9h-.2l-23,48.9h-7.8l-22.9-48h-.2v48h-8.8v-59h12.3l23.4,48.9,23.6-48.9Z"/>
  <path class="st0" d="M453.7,117.4c1.1-10.8,8.5-15,21.5-15s19.9,2.2,19.9,12.3v23.3c0,2.6,1.2,3.7,3.7,3.7s2.1-.2,2.9-.3v5.8c-2,.3-4.5.5-6.4.5-4.1,0-6.9-1.2-7.4-6-3.3,4.5-11.4,7-18.4,7-14.4,0-17.6-7.4-17.6-13.1s4.7-12,18.6-13.5l9.4-1c4.6-.5,7.5-1.3,7.5-5.2,0-5.9-5.8-7.1-12.5-7.1s-13.1,1.9-13.4,8.6h-7.8ZM487.4,124.5c-1.2,1.4-3.5,2-8.1,2.6l-9.3,1.2c-6.5.8-9.8,2.6-9.8,7.1s4.1,6.9,10.1,6.9c9.4,0,17.2-5,17.2-12.1v-5.5Z"/>
  <path class="st0" d="M507.4,103.8h8.3v7.9h.2c3.9-6.9,9.4-9.4,14.9-9.4s3.1,0,4.7.5v8.9c-2.1-.5-3.6-.8-5.9-.8-8.2,0-13.9,4.8-13.9,14.2v22h-8.3v-43.3Z"/>
  <path class="st0" d="M572,103.8h12.6l-20.3,16.3,21.9,27h-11.2l-17.3-21.7-7.6,6v15.6h-8.3v-59.5h8.3v34.7l22-18.5Z"/>
  <path class="st3" d="M361.2,88.4s-49.2,6.7-49.6-46.8c0-3.1,5.5,36.6,49.6,46.8Z"/>
  <path class="st1" d="M365.1,95.8s-62.2,25-80.4-44.9c-1.1-4.1,19.3,46.2,80.4,44.9Z"/>
  <rect class="st4" x="58.6" y="31.6" width="573" height="165.8"/>
  <path class="st2" d="M577.5,93.5h-2.8v7.6h-1.5v-7.6h-2.8v-1.2h7v1.2ZM589,101.1h-1.5v-7.3h0l-2.9,7.3h-.9l-2.9-7.3h0v7.3h-1.5v-8.8h2.2l2.6,6.7,2.6-6.7h2.2v8.8Z"/>
</svg>