<svg width="42" height="42" viewBox="0 0 42 42" fill="none" xmlns="http://www.w3.org/2000/svg">
<g clip-path="url(#clip0_61_11772)">
<path d="M12.2494 42C12.0191 42.0013 11.7908 41.9572 11.5776 41.8701C11.3644 41.783 11.1704 41.6547 11.0069 41.4925C10.8429 41.3298 10.7127 41.1362 10.6238 40.923C10.535 40.7097 10.4893 40.481 10.4893 40.25C10.4893 40.019 10.535 39.7902 10.6238 39.577C10.7127 39.3637 10.8429 39.1702 11.0069 39.0075L25.3044 24.71C26.2876 23.7256 26.8398 22.3912 26.8398 21C26.8398 19.6087 26.2876 18.2744 25.3044 17.29L11.0069 2.99252C10.6774 2.66298 10.4922 2.21604 10.4922 1.75002C10.4922 1.28399 10.6774 0.83705 11.0069 0.507519C11.3364 0.177988 11.7834 -0.00714111 12.2494 -0.00714111C12.7154 -0.00714111 13.1624 0.177988 13.4919 0.507519L27.7894 14.805C28.6043 15.6178 29.2508 16.5834 29.6919 17.6464C30.133 18.7094 30.36 19.8491 30.36 21C30.36 22.1509 30.133 23.2905 29.6919 24.3536C29.2508 25.4166 28.6043 26.3822 27.7894 27.195L13.4919 41.4925C13.3284 41.6547 13.1345 41.783 12.9212 41.8701C12.708 41.9572 12.4797 42.0013 12.2494 42Z" fill="#9AB5CB"/>
</g>
<defs>
<clipPath id="clip0_61_11772">
<rect width="42" height="42" fill="white"/>
</clipPath>
</defs>
</svg>
