<svg width="5" height="20" viewBox="0 0 5 20" fill="none" xmlns="http://www.w3.org/2000/svg">
<path fill-rule="evenodd" clip-rule="evenodd" d="M4.5444 2.26411C4.5444 3.47531 3.52736 4.45822 2.2722 4.45822C1.01704 4.45822 0 3.47531 0 2.26411C0 1.05201 1.01704 0.0699997 2.2722 0.0699997C3.52736 0.0699997 4.5444 1.05201 4.5444 2.26411ZM4.5444 10.035C4.5444 11.239 3.52736 12.2146 2.2722 12.2146C1.01704 12.2146 0 11.239 0 10.035C0 8.83105 1.01704 7.85538 2.2722 7.85538C3.52736 7.85538 4.5444 8.83105 4.5444 10.035ZM4.5444 17.8059C4.5444 19.018 3.52736 20 2.2722 20C1.01704 20 0 19.018 0 17.8059C0 16.5947 1.01704 15.6118 2.2722 15.6118C3.52736 15.6118 4.5444 16.5947 4.5444 17.8059Z" fill="#D0D7DD" fill-opacity="0.72727"/>
</svg>
