<svg width="42" height="42" viewBox="0 0 42 42" fill="none" xmlns="http://www.w3.org/2000/svg">
<g clip-path="url(#clip0_61_11769)">
<path d="M30.0472 42C29.8169 42.0013 29.5885 41.9572 29.3753 41.8701C29.1621 41.783 28.9682 41.6547 28.8047 41.4925L14.5072 27.195C13.6923 26.3822 13.0458 25.4166 12.6047 24.3536C12.1636 23.2905 11.9365 22.1509 11.9365 21C11.9365 19.8491 12.1636 18.7094 12.6047 17.6464C13.0458 16.5834 13.6923 15.6178 14.5072 14.805L28.8047 0.507519C28.9678 0.344351 29.1615 0.21492 29.3747 0.126615C29.5879 0.0383091 29.8164 -0.00714111 30.0472 -0.00714111C30.2779 -0.00714112 30.5064 0.0383091 30.7196 0.126615C30.9328 0.21492 31.1265 0.344351 31.2897 0.507519C31.4528 0.670686 31.5823 0.864394 31.6706 1.07758C31.7589 1.29077 31.8043 1.51926 31.8043 1.75002C31.8043 1.98077 31.7589 2.20926 31.6706 2.42245C31.5823 2.63564 31.4528 2.82935 31.2897 2.99252L16.9922 17.29C16.009 18.2744 15.4568 19.6087 15.4568 21C15.4568 22.3912 16.009 23.7256 16.9922 24.71L31.2897 39.0075C31.4537 39.1702 31.5839 39.3637 31.6727 39.577C31.7616 39.7902 31.8073 40.019 31.8073 40.25C31.8073 40.481 31.7616 40.7097 31.6727 40.923C31.5839 41.1362 31.4537 41.3298 31.2897 41.4925C31.1261 41.6547 30.9322 41.783 30.719 41.8701C30.5058 41.9572 30.2775 42.0013 30.0472 42Z" fill="#9AB5CB"/>
</g>
<defs>
<clipPath id="clip0_61_11769">
<rect width="42" height="42" fill="white"/>
</clipPath>
</defs>
</svg>
